PathFileType	4	(X/Y/Z)	C:\Users\italobelli\Desktop\GitHub\PTbot_officialCBL\Personal_Results\SHRUG02_noisy2.trc
DataRate	CameraRate	NumFrames	NumMarkers	Units	OrigDataRate	OrigDataStartFrame	OrigNumFrames
112.250000	112.250000	42	9	m	112.250000	169	450
Frame#	Time		gu		centelbow		EpL		centpxt8		centijc7		ij		ts		aa		ai
			X1	Y1	Z1	X2	Y2	Z2	X3	Y3	Z3	X4	Y4	Z4	X5	Y5	Z5	X6	Y6	Z6	X7	Y7	Z7	X8	Y8	Z8	X9	Y9	Z9

169	1.4967	-0.066537	0.051205	0.15731	-0.089926	-0.18451	0.21724	-0.067373	-0.17606	0.23868	-0.046816	-0.15316	-0.008669	-0.046816	0.031938	-0.008669	0	0	0	-0.13136	0.057266	0.042605	-0.093422	0.08937	0.15099	-0.14813	-0.046676	0.085021
170	1.5056	-0.066415	0.051692	0.15731	-0.089884	-0.18393	0.21753	-0.067324	-0.17546	0.23895	-0.046816	-0.15316	-0.008669	-0.046816	0.031938	-0.008669	0	0	0	-0.13134	0.057351	0.042499	-0.093316	0.089837	0.15083	-0.14802	-0.046508	0.085196
171	1.5145	-0.066297	0.052156	0.1573	-0.089854	-0.18338	0.21782	-0.067288	-0.17488	0.23922	-0.046816	-0.15316	-0.008669	-0.046816	0.031938	-0.008669	0	0	0	-0.13132	0.057433	0.042398	-0.093212	0.090283	0.15069	-0.14792	-0.046346	0.085364
172	1.5234	-0.066183	0.052598	0.1573	-0.089835	-0.18286	0.21812	-0.067261	-0.17434	0.23949	-0.046816	-0.15316	-0.008669	-0.046816	0.031938	-0.008669	0	0	0	-0.1313	0.057513	0.042302	-0.09311	0.09071	0.15054	-0.14782	-0.046191	0.085525
173	1.5323	-0.066072	0.053019	0.1573	-0.089827	-0.18236	0.21842	-0.067245	-0.17382	0.23976	-0.046816	-0.15316	-0.008669	-0.046816	0.031938	-0.008669	0	0	0	-0.13128	0.05759	0.042211	-0.093009	0.091117	0.15041	-0.14772	-0.046042	0.08568
174	1.5412	-0.065964	0.05342	0.15731	-0.08983	-0.18189	0.21872	-0.067239	-0.17332	0.24004	-0.046816	-0.15316	-0.008669	-0.046816	0.031938	-0.008669	0	0	0	-0.13125	0.057664	0.042124	-0.092911	0.091504	0.15028	-0.14763	-0.0459	0.085829
175	1.5501	-0.06586	0.053799	0.15731	-0.089844	-0.18144	0.21902	-0.067243	-0.17285	0.24032	-0.046816	-0.15316	-0.008669	-0.046816	0.031938	-0.008669	0	0	0	-0.13122	0.057736	0.042042	-0.092814	0.091873	0.15016	-0.14754	-0.045764	0.08597
176	1.559	-0.065759	0.054158	0.15732	-0.089867	-0.18101	0.21933	-0.067257	-0.17241	0.2406	-0.046816	-0.15316	-0.008669	-0.046816	0.031938	-0.008669	0	0	0	-0.13119	0.057805	0.041965	-0.09272	0.092222	0.15005	-0.14745	-0.045634	0.086106
177	1.5679	-0.065662	0.054496	0.15734	-0.089901	-0.18061	0.21963	-0.067281	-0.17199	0.24088	-0.046816	-0.15316	-0.008669	-0.046816	0.031938	-0.008669	0	0	0	-0.13116	0.057872	0.041892	-0.092627	0.092553	0.14994	-0.14736	-0.04551	0.086234
178	1.5768	-0.065568	0.054813	0.15735	-0.089944	-0.18023	0.21993	-0.067314	-0.1716	0.24116	-0.046816	-0.15316	-0.008669	-0.046816	0.031938	-0.008669	0	0	0	-0.13113	0.057935	0.041824	-0.092537	0.092864	0.14984	-0.14728	-0.045393	0.086356
179	1.5857	-0.065478	0.05511	0.15737	-0.089997	-0.17987	0.22024	-0.067356	-0.17123	0.24145	-0.046816	-0.15316	-0.008669	-0.046816	0.031938	-0.008669	0	0	0	-0.13109	0.057996	0.04176	-0.092449	0.093157	0.14974	-0.14719	-0.045282	0.086472
180	1.5947	-0.065391	0.055386	0.15739	-0.090059	-0.17954	0.22055	-0.067407	-0.17089	0.24173	-0.046816	-0.15316	-0.008669	-0.046816	0.031938	-0.008669	0	0	0	-0.13105	0.058054	0.041701	-0.092363	0.093431	0.14966	-0.14712	-0.045178	0.086581
181	1.6036	-0.065309	0.055643	0.15741	-0.09013	-0.17924	0.22085	-0.067466	-0.17057	0.24201	-0.046816	-0.15316	-0.008669	-0.046816	0.031938	-0.008669	0	0	0	-0.13102	0.058109	0.041646	-0.092279	0.093686	0.14958	-0.14704	-0.04508	0.086684
182	1.6125	-0.065229	0.055879	0.15744	-0.09021	-0.17895	0.22116	-0.067535	-0.17027	0.2423	-0.046816	-0.15316	-0.008669	-0.046816	0.031938	-0.008669	0	0	0	-0.13098	0.058162	0.041596	-0.092197	0.093923	0.1495	-0.14697	-0.044988	0.08678
183	1.6214	-0.065154	0.056096	0.15747	-0.090299	-0.17869	0.22146	-0.067611	-0.17	0.24258	-0.046816	-0.15316	-0.008669	-0.046816	0.031938	-0.008669	0	0	0	-0.13093	0.058211	0.04155	-0.092118	0.094142	0.14943	-0.1469	-0.044902	0.08687
184	1.6303	-0.065082	0.056292	0.1575	-0.090396	-0.17846	0.22176	-0.067696	-0.16976	0.24286	-0.046816	-0.15316	-0.008669	-0.046816	0.031938	-0.008669	0	0	0	-0.13089	0.058257	0.041508	-0.092041	0.094342	0.14937	-0.14684	-0.044823	0.086953
185	1.6392	-0.065014	0.056469	0.15753	-0.090502	-0.17824	0.22206	-0.067789	-0.16954	0.24314	-0.046816	-0.15316	-0.008669	-0.046816	0.031938	-0.008669	0	0	0	-0.13085	0.0583	0.041471	-0.091967	0.094524	0.14932	-0.14677	-0.04475	0.08703
186	1.6481	-0.064949	0.056626	0.15757	-0.090615	-0.17805	0.22236	-0.06789	-0.16934	0.24342	-0.046816	-0.15316	-0.008669	-0.046816	0.031938	-0.008669	0	0	0	-0.1308	0.058341	0.041438	-0.091895	0.094688	0.14927	-0.14671	-0.044684	0.0871
187	1.657	-0.064889	0.056764	0.1576	-0.090737	-0.17788	0.22265	-0.067998	-0.16917	0.24369	-0.046816	-0.15316	-0.008669	-0.046816	0.031938	-0.008669	0	0	0	-0.13076	0.058378	0.041409	-0.091825	0.094835	0.14923	-0.14666	-0.044624	0.087164
188	1.6659	-0.064832	0.056882	0.15764	-0.090865	-0.17774	0.22295	-0.068113	-0.16902	0.24397	-0.046816	-0.15316	-0.008669	-0.046816	0.031938	-0.008669	0	0	0	-0.13071	0.058412	0.041385	-0.091758	0.094963	0.14919	-0.1466	-0.04457	0.087222
189	1.6748	-0.064779	0.056981	0.15768	-0.091001	-0.17761	0.22324	-0.068236	-0.1689	0.24424	-0.046816	-0.15316	-0.008669	-0.046816	0.031938	-0.008669	0	0	0	-0.13067	0.058442	0.041365	-0.091694	0.095074	0.14916	-0.14655	-0.044522	0.087273
190	1.6837	-0.06473	0.057062	0.15772	-0.091145	-0.17751	0.22352	-0.068366	-0.1688	0.2445	-0.046816	-0.15316	-0.008669	-0.046816	0.031938	-0.008669	0	0	0	-0.13062	0.05847	0.041349	-0.091632	0.095167	0.14914	-0.1465	-0.044481	0.087317
191	1.6927	-0.064686	0.057123	0.15777	-0.091295	-0.17743	0.22381	-0.068502	-0.16872	0.24477	-0.046816	-0.15316	-0.008669	-0.046816	0.031938	-0.008669	0	0	0	-0.13057	0.058494	0.041337	-0.091573	0.095243	0.14912	-0.14646	-0.044446	0.087355
192	1.7016	-0.064645	0.057165	0.15781	-0.091451	-0.17738	0.22408	-0.068645	-0.16866	0.24503	-0.046816	-0.15316	-0.008669	-0.046816	0.031938	-0.008669	0	0	0	-0.13052	0.058515	0.041329	-0.091517	0.095302	0.14911	-0.14642	-0.044418	0.087387
193	1.7105	-0.064608	0.057188	0.15786	-0.091614	-0.17734	0.22436	-0.068795	-0.16863	0.24529	-0.046816	-0.15316	-0.008669	-0.046816	0.031938	-0.008669	0	0	0	-0.13048	0.058533	0.041326	-0.091463	0.095343	0.1491	-0.14638	-0.044395	0.087412
194	1.7194	-0.064575	0.057193	0.15791	-0.091784	-0.17733	0.22463	-0.068951	-0.16862	0.24554	-0.046816	-0.15316	-0.008669	-0.046816	0.031938	-0.008669	0	0	0	-0.13043	0.058547	0.041326	-0.091412	0.095367	0.1491	-0.14634	-0.04438	0.087431
195	1.7283	-0.064546	0.05718	0.15796	-0.091959	-0.17734	0.22489	-0.069112	-0.16863	0.24579	-0.046816	-0.15316	-0.008669	-0.046816	0.031938	-0.008669	0	0	0	-0.13038	0.058558	0.041331	-0.091364	0.095374	0.14911	-0.14631	-0.04437	0.087444
196	1.7372	-0.064521	0.057148	0.15801	-0.09214	-0.17737	0.22515	-0.069279	-0.16867	0.24603	-0.046816	-0.15316	-0.008669	-0.046816	0.031938	-0.008669	0	0	0	-0.13033	0.058566	0.04134	-0.091319	0.095364	0.14913	-0.14628	-0.044367	0.08745
197	1.7461	-0.064501	0.057098	0.15807	-0.092327	-0.17742	0.2254	-0.069452	-0.16873	0.24627	-0.046816	-0.15316	-0.008669	-0.046816	0.031938	-0.008669	0	0	0	-0.13028	0.05857	0.041353	-0.091277	0.095338	0.14914	-0.14626	-0.04437	0.087449
198	1.755	-0.064484	0.057029	0.15812	-0.092518	-0.17749	0.22564	-0.069631	-0.16881	0.2465	-0.046816	-0.15316	-0.008669	-0.046816	0.031938	-0.008669	0	0	0	-0.13023	0.058571	0.041369	-0.091238	0.095294	0.14917	-0.14624	-0.044379	0.087442
199	1.7639	-0.064472	0.056943	0.15818	-0.092715	-0.17759	0.22588	-0.069814	-0.16891	0.24673	-0.046816	-0.15316	-0.008669	-0.046816	0.031938	-0.008669	0	0	0	-0.13019	0.058568	0.04139	-0.091202	0.095235	0.1492	-0.14622	-0.044395	0.087429
200	1.7728	-0.064464	0.056839	0.15823	-0.092917	-0.1777	0.22612	-0.070003	-0.16904	0.24695	-0.046816	-0.15316	-0.008669	-0.046816	0.031938	-0.008669	0	0	0	-0.13014	0.058561	0.041415	-0.091169	0.095158	0.14924	-0.1462	-0.044417	0.08741
201	1.7817	-0.064461	0.056717	0.15829	-0.093124	-0.17783	0.22634	-0.070196	-0.16918	0.24717	-0.046816	-0.15316	-0.008669	-0.046816	0.031938	-0.008669	0	0	0	-0.13009	0.058551	0.041443	-0.091139	0.095066	0.14928	-0.14619	-0.044446	0.087384
202	1.7906	-0.064461	0.056577	0.15835	-0.093335	-0.17799	0.22656	-0.070394	-0.16935	0.24737	-0.046816	-0.15316	-0.008669	-0.046816	0.031938	-0.008669	0	0	0	-0.13005	0.058537	0.041476	-0.091112	0.094957	0.14933	-0.14618	-0.04448	0.087352
203	1.7996	-0.064466	0.05642	0.15841	-0.09355	-0.17817	0.22677	-0.070596	-0.16954	0.24757	-0.046816	-0.15316	-0.008669	-0.046816	0.031938	-0.008669	0	0	0	-0.13	0.058519	0.041512	-0.091088	0.094832	0.14938	-0.14618	-0.044521	0.087313
204	1.8085	-0.064476	0.056246	0.15847	-0.093769	-0.17836	0.22697	-0.070803	-0.16975	0.24777	-0.046816	-0.15316	-0.008669	-0.046816	0.031938	-0.008669	0	0	0	-0.12996	0.058498	0.041552	-0.091068	0.094691	0.14944	-0.14618	-0.044569	0.087268
205	1.8174	-0.06449	0.056054	0.15854	-0.093992	-0.17858	0.22716	-0.071013	-0.16998	0.24795	-0.046816	-0.15316	-0.008669	-0.046816	0.031938	-0.008669	0	0	0	-0.12991	0.058473	0.041596	-0.091051	0.094535	0.14951	-0.14618	-0.044622	0.087217
206	1.8263	-0.064508	0.055845	0.1586	-0.094218	-0.17882	0.22734	-0.071227	-0.17023	0.24813	-0.046816	-0.15316	-0.008669	-0.046816	0.031938	-0.008669	0	0	0	-0.12987	0.058444	0.041644	-0.091037	0.094362	0.14958	-0.14618	-0.044682	0.087159
207	1.8352	-0.064531	0.055619	0.15866	-0.094448	-0.17907	0.22751	-0.071445	-0.17051	0.2483	-0.046816	-0.15316	-0.008669	-0.046816	0.031938	-0.008669	0	0	0	-0.12983	0.058412	0.041695	-0.091026	0.094174	0.14966	-0.14619	-0.044749	0.087095
208	1.8441	-0.064558	0.055376	0.15873	-0.09468	-0.17935	0.22768	-0.071666	-0.1708	0.24846	-0.046816	-0.15316	-0.008669	-0.046816	0.031938	-0.008669	0	0	0	-0.12979	0.058375	0.041751	-0.091019	0.09397	0.14974	-0.1462	-0.044821	0.087025
209	1.853	-0.06459	0.055116	0.15879	-0.094916	-0.17965	0.22783	-0.07189	-0.17112	0.24861	-0.046816	-0.15316	-0.008669	-0.046816	0.031938	-0.008669	0	0	0	-0.12975	0.058335	0.04181	-0.091016	0.093751	0.14983	-0.14622	-0.0449	0.086948
210	1.8619	-0.064626	0.05484	0.15886	-0.095154	-0.17996	0.22797	-0.072118	-0.17145	0.24875	-0.046816	-0.15316	-0.008669	-0.046816	0.031938	-0.008669	0	0	0	-0.12971	0.05829	0.041872	-0.091016	0.093516	0.14993	-0.14624	-0.044985	0.086865
